<?xml version="1.0" encoding="UTF-8" standalone="no"?>
<!-- Generator: Adobe Illustrator 19.2.1, SVG Export Plug-In . SVG Version: 6.00 Build 0)  -->

<svg
   xmlns:dc="http://purl.org/dc/elements/1.1/"
   xmlns:cc="http://creativecommons.org/ns#"
   xmlns:rdf="http://www.w3.org/1999/02/22-rdf-syntax-ns#"
   xmlns:svg="http://www.w3.org/2000/svg"
   xmlns="http://www.w3.org/2000/svg"
   xmlns:sodipodi="http://sodipodi.sourceforge.net/DTD/sodipodi-0.dtd"
   xmlns:inkscape="http://www.inkscape.org/namespaces/inkscape"
   version="1.1"
   x="0px"
   y="0px"
   viewBox="0 0 211.3846 106.0846"
   enable-background="new 0 0 256 256"
   xml:space="preserve"
   id="svg2"
   inkscape:version="0.48.4 r9939"
   width="100%"
   height="100%"
   sodipodi:docname="gradientOff.svg"><metadata
     id="metadata17"><rdf:RDF><cc:Work
         rdf:about=""><dc:format>image/svg+xml</dc:format><dc:type
           rdf:resource="http://purl.org/dc/dcmitype/StillImage" /></cc:Work></rdf:RDF></metadata><defs
     id="defs15" /><sodipodi:namedview
     pagecolor="#ffffff"
     bordercolor="#666666"
     borderopacity="1"
     objecttolerance="10"
     gridtolerance="10"
     guidetolerance="10"
     inkscape:pageopacity="0"
     inkscape:pageshadow="2"
     inkscape:window-width="640"
     inkscape:window-height="480"
     id="namedview13"
     showgrid="false"
     fit-margin-top="0"
     fit-margin-left="0"
     fit-margin-right="0"
     fit-margin-bottom="0"
     inkscape:zoom="0.921875"
     inkscape:cx="105.3423"
     inkscape:cy="52.9423"
     inkscape:window-x="252"
     inkscape:window-y="122"
     inkscape:window-maximized="0"
     inkscape:current-layer="svg2" /><g
     id="gradientOff"
     transform="translate(-22.6577,-74.8577)"><g
       id="g5"><path
         d="m 75.6,173.9 c -25.4,0 -46,-20.6 -46,-46 0,-25.4 20.6,-46 46,-46 h 105.3 c 25.4,0 46,20.6 46,46 0,25.4 -20.6,46 -46,46 H 75.6 z"
         id="path7"
         inkscape:connector-curvature="0"
         style="opacity:0.6;fill:#ffffff" /><circle
         cx="79.300003"
         cy="127.2"
         r="42.400002"
         id="circle9"
         sodipodi:cx="79.300003"
         sodipodi:cy="127.2"
         sodipodi:rx="42.400002"
         sodipodi:ry="42.400002"
         style="fill:#bcbec0"
         d="m 121.7,127.2 c 0,23.41687 -18.98312,42.4 -42.399997,42.4 -23.416874,0 -42.400001,-18.98313 -42.400001,-42.4 0,-23.41688 18.983127,-42.400005 42.400001,-42.400005 C 102.71688,84.799995 121.7,103.78312 121.7,127.2 z" /><path
         stroke-miterlimit="10"
         d="M 75.7,77.2 H 181 c 28,0 50.7,22.7 50.7,50.7 v 0 c 0,28 -22.7,50.7 -50.7,50.7 H 75.7 C 47.7,178.6 25,155.9 25,127.9 v 0 c 0,-28 22.7,-50.7 50.7,-50.7 z"
         id="path11"
         inkscape:connector-curvature="0"
         style="fill:none;stroke:#1c0030;stroke-width:4.68459988;stroke-linejoin:round;stroke-miterlimit:10" /></g></g></svg>