<?xml version="1.0" encoding="utf-8"?>
<!-- Generator: Adobe Illustrator 19.2.1, SVG Export Plug-In . SVG Version: 6.00 Build 0)  -->
<svg version="1.1" id="Layer_1" xmlns="http://www.w3.org/2000/svg" xmlns:xlink="http://www.w3.org/1999/xlink" x="0px" y="0px"
	 viewBox="0 0 256 256" enable-background="new 0 0 256 256" xml:space="preserve">
<g>
	
		<radialGradient id="SVGID_1_" cx="129" cy="129.4136" r="66.5" gradientTransform="matrix(1 0 0 -1 0 258)" gradientUnits="userSpaceOnUse">
		<stop  offset="0" style="stop-color:#C53029"/>
		<stop  offset="1" style="stop-color:#C53029;stop-opacity:0"/>
	</radialGradient>
	<circle fill="url(#SVGID_1_)" cx="129" cy="128.6" r="66.5"/>
	<circle fill="none" stroke="#C53029" stroke-width="4.252" stroke-miterlimit="10" cx="128.4" cy="128.7" r="49.9"/>
	<g>
		<polygon fill="#C53029" points="119,30.6 126.5,30.6 126.4,63.2 130.6,63.2 130.7,30.6 138.1,30.7 128.6,14.1 		"/>
		<polygon fill="#C53029" points="129.5,195.2 125.3,195.2 125.2,228.3 117.8,228.3 127.3,244.8 136.9,228.3 129.4,228.3 		"/>
		<polygon fill="#C53029" points="65.3,52.4 46.8,47.4 51.7,65.9 57,60.6 80,83.7 83,80.7 60.1,57.6 		"/>
		<polygon fill="#C53029" points="198.9,198.3 175.6,174.8 172.5,177.8 195.9,201.3 190.7,206.5 209.1,211.5 204.2,193 		"/>
		<polygon fill="#C53029" points="61.7,131 61.7,126.8 29.2,126.7 29.2,119.3 12.6,128.8 29.1,138.4 29.1,130.9 		"/>
		<polygon fill="#C53029" points="243.3,130.1 226.8,120.5 226.8,128 193.7,127.9 193.7,132.1 226.8,132.2 226.8,139.6 		"/>
		<polygon fill="#C53029" points="79.2,174.4 56.1,197.3 50.9,192.1 45.9,210.5 64.4,205.7 59.1,200.4 82.2,177.4 		"/>
		<polygon fill="#C53029" points="176.3,84.8 199.8,61.5 205,66.7 210,48.3 191.5,53.2 196.8,58.5 173.3,81.8 		"/>
	</g>
</g>
</svg>
